<?xml version="1.0" encoding="utf-8"?>
<!-- Generator: Adobe Illustrator 23.0.1, SVG Export Plug-In . SVG Version: 6.00 Build 0)  -->
<svg version="1.1" id="Lag_1" xmlns="http://www.w3.org/2000/svg" xmlns:xlink="http://www.w3.org/1999/xlink" x="0px" y="0px"
	 viewBox="0 0 300 100" style="enable-background:new 0 0 300 100;" xml:space="preserve">
<style type="text/css">
	.st0{fill:#1B213A;}
	.st1{fill:#E657A9;}
	.st2{fill:#17208B;}
</style>
<g>
	<g>
		<path class="st0" d="M96.15,67.84h-4.99V30.16h4.99V67.84z M96.21,52.05l11.08-12.47h6.04l-11.36,12.47l12.14,15.79h-5.71
			L96.21,52.05z"/>
		<path class="st0" d="M115.98,68.76h-8.04L97.08,54.68v14.08h-6.84V29.23h6.84v20.45l9.8-11.02h8.55L103.18,52.1L115.98,68.76z
			 M108.85,66.92h3.38L100.77,52l10.47-11.49h-3.53l-10.3,11.59L108.85,66.92z M92.09,66.92h3.14V52.29L95.01,52l0.22-0.25V31.08
			h-3.14V66.92z"/>
	</g>
	<g>
		<path class="st0" d="M129.9,68.51c-8.59,0-12.69-6.15-12.69-14.8s4.1-14.8,12.69-14.8s12.69,6.15,12.69,14.8
			S138.49,68.51,129.9,68.51z M137.33,49.33c0-3.88-3.44-6.43-7.43-6.43c-3.99,0-7.43,2.55-7.43,6.43v8.76
			c0,3.88,3.44,6.43,7.43,6.43c3.99,0,7.43-2.55,7.43-6.43V49.33z"/>
		<path class="st0" d="M129.9,69.43c-8.53,0-13.62-5.88-13.62-15.72s5.09-15.72,13.62-15.72s13.62,5.88,13.62,15.72
			S138.43,69.43,129.9,69.43z M129.9,39.84c-7.48,0-11.77,5.06-11.77,13.87s4.29,13.87,11.77,13.87c7.48,0,11.77-5.06,11.77-13.87
			S137.38,39.84,129.9,39.84z M129.9,65.44c-4.76,0-8.35-3.16-8.35-7.35v-8.76c0-4.19,3.59-7.35,8.35-7.35
			c4.76,0,8.35,3.16,8.35,7.35v8.76C138.25,62.28,134.66,65.44,129.9,65.44z M129.9,43.83c-3.15,0-6.5,1.93-6.5,5.5v8.76
			c0,3.58,3.35,5.5,6.5,5.5c3.15,0,6.5-1.93,6.5-5.5v-8.76C136.4,45.76,133.05,43.83,129.9,43.83z"/>
	</g>
	<g>
		<path class="st0" d="M150.29,39.58h13.58v4.32h-8.59v23.94h-4.99V39.58z"/>
		<path class="st0" d="M156.21,68.76h-6.84V38.65h15.43v6.17h-8.59V68.76z M151.22,66.92h3.14V42.98h8.59V40.5h-11.73V66.92z"/>
	</g>
	<g>
		<path class="st0" d="M177.06,63.57h6.48v4.27h-11.42v-24h-4.77v-4.27h4.77v-9.42h4.93v9.42h6.48v4.27h-6.48V63.57z"/>
		<path class="st0" d="M184.47,68.76H171.2v-24h-4.77v-6.12h4.77v-9.42h6.78v9.42h6.48v6.12h-6.48v17.88h6.48V68.76z M173.05,66.92
			h9.57V64.5h-6.48V42.92h6.48V40.5h-6.48v-9.42h-3.08v9.42h-4.77v2.42h4.77V66.92z"/>
	</g>
	<g>
		<path class="st0" d="M190.58,67.84V30.16h4.99v37.68H190.58z"/>
		<path class="st0" d="M196.49,68.76h-6.84V29.23h6.84V68.76z M191.51,66.92h3.14V31.08h-3.14V66.92z"/>
	</g>
	<g>
		<path class="st0" d="M216.07,68.51c-8.59,0-12.69-6.15-12.69-14.8s4.1-14.8,12.69-14.8c8.59,0,12.69,6.15,12.69,14.8
			S224.66,68.51,216.07,68.51z M223.5,49.33c0-3.88-3.44-6.43-7.43-6.43c-3.99,0-7.43,2.55-7.43,6.43v8.76
			c0,3.88,3.44,6.43,7.43,6.43c3.99,0,7.43-2.55,7.43-6.43V49.33z"/>
		<path class="st0" d="M216.07,69.43c-8.53,0-13.62-5.88-13.62-15.72s5.09-15.72,13.62-15.72c8.53,0,13.62,5.88,13.62,15.72
			S224.6,69.43,216.07,69.43z M216.07,39.84c-7.48,0-11.77,5.06-11.77,13.87s4.29,13.87,11.77,13.87s11.77-5.06,11.77-13.87
			S223.55,39.84,216.07,39.84z M216.07,65.44c-4.76,0-8.35-3.16-8.35-7.35v-8.76c0-4.19,3.59-7.35,8.35-7.35s8.35,3.16,8.35,7.35
			v8.76C224.42,62.28,220.83,65.44,216.07,65.44z M216.07,43.83c-3.15,0-6.5,1.93-6.5,5.5v8.76c0,3.58,3.35,5.5,6.5,5.5
			c3.15,0,6.5-1.93,6.5-5.5v-8.76C222.58,45.76,219.23,43.83,216.07,43.83z"/>
	</g>
	<g>
		<path class="st0" d="M260.24,67.29c0,7.81-6.15,11.36-12.19,11.36c-5.87,0-11.19-2.11-12.03-8.87h4.99
			c0.39,3.21,2.94,4.88,6.82,4.88c3.88,0,7.43-2.16,7.43-7.59v-3.82c-1.77,3.38-4.71,5.26-8.92,5.26c-7.65,0-11.31-6.59-11.31-14.8
			s3.6-14.8,11.2-14.8c4.21,0,7.26,1.88,9.03,5.26v-4.6h4.99V67.29z M255.25,51.33c0-4.88-2.77-8.42-7.76-8.42
			c-4.1,0-7.2,2.6-7.2,6.43v8.76c0,3.82,3.1,6.43,7.2,6.43c4.99,0,7.76-3.55,7.76-8.42V51.33z"/>
		<path class="st0" d="M248.05,79.57c-7.58,0-12.18-3.44-12.94-9.68l-0.13-1.04h6.85l0.1,0.81c0.4,3.36,3.43,4.06,5.9,4.06
			c1.95,0,6.5-0.65,6.5-6.67v-0.88c-1.98,2.16-4.66,3.25-8,3.25c-7.54,0-12.23-6.02-12.23-15.72s4.64-15.72,12.12-15.72
			c3.35,0,6.11,1.12,8.11,3.27v-2.61h6.84v28.63C261.17,75.73,254.37,79.57,248.05,79.57z M237.11,70.7c1,4.66,4.67,7.02,10.94,7.02
			c5.61,0,11.27-3.23,11.27-10.44V40.5h-3.14v7.43l-1.74-3.32c-1.66-3.17-4.42-4.77-8.22-4.77c-7.57,0-10.27,7.17-10.27,13.87
			s2.73,13.87,10.38,13.87c3.72,0,6.44-1.6,8.1-4.77l1.74-3.32v7.57c0,6.28-4.31,8.52-8.35,8.52c-4.13,0-6.85-1.76-7.59-4.88H237.11
			z M247.5,65.44c-4.71,0-8.13-3.09-8.13-7.35v-8.76c0-4.26,3.42-7.35,8.13-7.35c5.27,0,8.68,3.67,8.68,9.35v4.77
			C256.18,61.77,252.77,65.44,247.5,65.44z M247.5,43.83c-3.7,0-6.28,2.26-6.28,5.5v8.76c0,3.24,2.58,5.5,6.28,5.5
			c4.22,0,6.83-2.87,6.83-7.5v-4.77C254.33,46.7,251.71,43.83,247.5,43.83z"/>
	</g>
	<g>
		<path class="st0" d="M280.63,68.51c-8.59,0-12.69-6.15-12.69-14.8s4.1-14.8,12.69-14.8c8.59,0,12.69,6.15,12.69,14.8
			S289.22,68.51,280.63,68.51z M288.06,49.33c0-3.88-3.44-6.43-7.43-6.43s-7.43,2.55-7.43,6.43v8.76c0,3.88,3.44,6.43,7.43,6.43
			s7.43-2.55,7.43-6.43V49.33z"/>
		<path class="st0" d="M280.63,69.43c-8.53,0-13.62-5.88-13.62-15.72s5.09-15.72,13.62-15.72s13.62,5.88,13.62,15.72
			S289.16,69.43,280.63,69.43z M280.63,39.84c-7.48,0-11.77,5.06-11.77,13.87s4.29,13.87,11.77,13.87c7.48,0,11.77-5.06,11.77-13.87
			S288.11,39.84,280.63,39.84z M272.92,46.41c1.23-2.66,4.14-4.44,7.71-4.44c4.76,0,8.35,3.16,8.35,7.35v8.76
			c0,4.19-3.59,7.35-8.35,7.35c-4.76,0-8.35-3.16-8.35-7.35v-8.76C272.28,48.28,272.51,47.3,272.92,46.41 M280.63,43.83
			c-3.15,0-6.5,1.93-6.5,5.5v8.76c0,3.58,3.35,5.5,6.5,5.5c3.15,0,6.5-1.93,6.5-5.5v-8.76C287.14,45.76,283.79,43.83,280.63,43.83z"
			/>
	</g>
</g>
<path class="st1" d="M63.25,50.15c0-7.91,3.53-14.98,9.1-19.75c-4.55-3.9-10.45-6.26-16.91-6.26c-14.37,0-26.01,11.65-26.01,26.01
	c0,14.37,11.65,26.01,26.01,26.01c6.46,0,12.36-2.36,16.91-6.26C66.78,65.13,63.25,58.05,63.25,50.15z"/>
<path class="st2" d="M22.26,24.14c-6.48,0-12.41,2.38-16.97,6.3c5.54,4.77,9.04,11.83,9.04,19.71s-3.51,14.94-9.04,19.71
	c4.56,3.93,10.48,6.3,16.97,6.3c14.37,0,26.01-11.65,26.01-26.01C48.27,35.78,36.62,24.14,22.26,24.14z"/>
</svg>
